<svg width="32" height="32" viewBox="0 0 32 32" fill="none" xmlns="http://www.w3.org/2000/svg">
<g clip-path="url(#clip0_1_6694)">
<path d="M15.9375 29.1562C17.0766 29.1562 18 28.2328 18 27.0937C18 25.9546 17.0766 25.0312 15.9375 25.0312C14.7984 25.0312 13.875 25.9546 13.875 27.0937C13.875 28.2328 14.7984 29.1562 15.9375 29.1562Z" fill="#10375C"/>
<path d="M22.072 20.0182C20.4457 18.407 18.1146 17.4062 15.9883 17.4062C15.988 17.4062 15.9876 17.4062 15.9873 17.4062H15.8973C15.8969 17.4062 15.8967 17.4062 15.8963 17.4062C13.7699 17.4062 11.4386 18.4071 9.81246 20.0182C9.32209 20.5041 9.3184 21.2955 9.80427 21.786C10.0487 22.0326 10.3705 22.1562 10.6923 22.1562C11.0102 22.1562 11.3283 22.0356 11.572 21.7942C12.7296 20.6472 14.427 19.9062 15.8965 19.9062C15.8966 19.9062 15.8969 19.9062 15.8971 19.9062H15.9875C15.9878 19.9062 15.9878 19.9062 15.9881 19.9062C17.4574 19.9062 19.1548 20.6473 20.3124 21.7942C20.8028 22.28 21.5943 22.2765 22.0801 21.786C22.5661 21.2956 22.5624 20.5041 22.072 20.0182Z" fill="#10375C"/>
<path d="M31.6644 9.67899C27.5563 5.27131 21.9934 2.84381 15.9998 2.84375C10.0066 2.84381 4.44372 5.27131 0.335543 9.67899C-0.135081 10.184 -0.107269 10.975 0.39773 11.4457C0.902792 11.9163 1.69373 11.8885 2.16441 11.3835C5.79441 7.48874 10.7079 5.34381 16.0002 5.34375C21.2921 5.34381 26.2056 7.48874 29.8355 11.3835C30.0817 11.6476 30.4155 11.7812 30.7502 11.7812C31.0554 11.7812 31.3614 11.6701 31.6022 11.4457C32.1072 10.9749 32.1351 10.184 31.6644 9.67899Z" fill="#10375C"/>
<path d="M27.0746 14.8411C24.0379 11.7815 20.1049 10.0966 15.9999 10.0967C11.8939 10.0967 7.96081 11.7817 4.92507 14.8412C4.43882 15.3313 4.44188 16.1227 4.93194 16.609C5.422 17.0952 6.21344 17.0922 6.69969 16.6021C9.2625 14.0192 12.5654 12.5967 15.9999 12.5967C19.4335 12.5965 22.7363 14.0191 25.3001 16.6022C25.5445 16.8484 25.8658 16.9717 26.1873 16.9717C26.5056 16.9717 26.8241 16.8508 27.068 16.6088C27.5579 16.1225 27.5609 15.3311 27.0746 14.8411Z" fill="#10375C"/>
</g>
<defs>
<clipPath id="clip0_1_6694">
<rect width="32" height="32" fill="white"/>
</clipPath>
</defs>
</svg>
